<svg viewBox="0 0 1200 800" fill="none" xmlns="http://www.w3.org/2000/svg">
  <defs>
    <linearGradient id="bg" x1="0" y1="0" x2="1200" y2="800" gradientUnits="userSpaceOnUse">
      <stop stop-color="#0f172a" />
      <stop offset="1" stop-color="#0f172a" stop-opacity="0.8" />
    </linearGradient>
    <linearGradient id="panel" x1="0" y1="0" x2="1" y2="1">
      <stop offset="0%" stop-color="#38bdf8" stop-opacity="0.5" />
      <stop offset="100%" stop-color="#818cf8" stop-opacity="0.18" />
    </linearGradient>
    <linearGradient id="accent" x1="0" y1="0" x2="0" y2="1">
      <stop stop-color="#22d3ee" />
      <stop offset="1" stop-color="#8b5cf6" />
    </linearGradient>
  </defs>
  <rect width="1200" height="800" rx="40" fill="url(#bg)" />
  <rect x="80" y="80" width="1040" height="620" rx="40" fill="rgba(15, 23, 42, 0.8)" stroke="white" stroke-opacity="0.08" />
  <rect x="120" y="120" width="960" height="80" rx="24" fill="rgba(255,255,255,0.08)" />
  <circle cx="150" cy="160" r="8" fill="#22d3ee" />
  <circle cx="180" cy="160" r="8" fill="#8b5cf6" />
  <circle cx="210" cy="160" r="8" fill="#38bdf8" />
  <rect x="120" y="220" width="420" height="260" rx="28" fill="rgba(255,255,255,0.08)" />
  <rect x="600" y="220" width="360" height="260" rx="28" fill="url(#panel)" />
  <rect x="640" y="260" width="280" height="28" rx="14" fill="#e2e8f0" opacity="0.7" />
  <rect x="640" y="310" width="220" height="22" rx="11" fill="#c7d2fe" opacity="0.75" />
  <rect x="640" y="350" width="180" height="22" rx="11" fill="#a5b4fc" opacity="0.75" />
  <rect x="640" y="390" width="240" height="22" rx="11" fill="#93c5fd" opacity="0.8" />
  <rect x="640" y="430" width="300" height="22" rx="11" fill="#38bdf8" />
  <path d="M200 520C220 490 260 480 292 496C338 520 432 510 510 540" stroke="#38bdf8" stroke-width="22" stroke-linecap="round" />
  <path d="M200 580C230 560 270 550 320 560C360 568 430 560 480 590" stroke="#818cf8" stroke-width="18" stroke-linecap="round" />
  <circle cx="250" cy="330" r="38" fill="#0f172a" stroke="#38bdf8" stroke-width="8" />
  <circle cx="250" cy="330" r="20" fill="#38bdf8" />
  <circle cx="400" cy="360" r="34" fill="#0f172a" stroke="#8b5cf6" stroke-width="8" />
  <circle cx="400" cy="360" r="18" fill="#8b5cf6" />
  <circle cx="310" cy="430" r="28" fill="#0f172a" stroke="#22d3ee" stroke-width="8" />
  <circle cx="310" cy="430" r="14" fill="#22d3ee" />
  <rect x="120" y="520" width="420" height="140" rx="24" fill="rgba(255,255,255,0.05)" />
  <rect x="160" y="560" width="140" height="18" rx="9" fill="#e2e8f0" opacity="0.65" />
  <rect x="160" y="600" width="240" height="18" rx="9" fill="#c7d2fe" opacity="0.65" />
  <rect x="160" y="640" width="200" height="18" rx="9" fill="#93c5fd" opacity="0.85" />
  <rect x="900" y="560" width="100" height="120" rx="24" fill="rgba(255,255,255,0.08)" />
  <rect x="930" y="590" width="40" height="20" rx="10" fill="#38bdf8" />
  <rect x="930" y="630" width="40" height="20" rx="10" fill="#8b5cf6" />
  <rect x="930" y="670" width="40" height="20" rx="10" fill="#22d3ee" />
  <rect x="220" y="190" width="140" height="24" rx="12" fill="#38bdf8" opacity="0.8" />
  <rect x="220" y="230" width="88" height="20" rx="10" fill="#c7d2fe" opacity="0.7" />
  <rect x="220" y="260" width="118" height="20" rx="10" fill="#c7d2fe" opacity="0.6" />
  <rect x="220" y="290" width="70" height="20" rx="10" fill="#a5b4fc" opacity="0.9" />
</svg>
